<svg xmlns="http://www.w3.org/2000/svg" xmlns:xlink="http://www.w3.org/1999/xlink" viewBox="0 0 1920 1080"><defs><style>.cls-1{fill:#d6227d;}.cls-2,.cls-3,.cls-5{fill:none;}.cls-2,.cls-3,.cls-4,.cls-5{stroke:#000;stroke-miterlimit:10;}.cls-2{stroke-width:4px;}.cls-3{stroke-width:5px;}.cls-4{fill:#a51158;}.cls-4,.cls-5{stroke-width:3px;}</style></defs><g id="Capa_1" data-name="Capa 1"><rect class="cls-1" x="0.5" y="0.5" width="1919" height="1079"/><path d="M1919,1V1079H1V1H1919m1-1H0V1080H1920V0Z"/></g><g id="Capa_2" data-name="Capa 2"><path d="M55.48,219.84v-1.42a12.06,12.06,0,0,1,.4-3.24,8.53,8.53,0,0,1,1.32-2.67A14.85,14.85,0,0,1,59.62,210q1.49-1.26,3.65-2.84A23.44,23.44,0,0,0,65.88,205a11.23,11.23,0,0,0,1.69-2,6.64,6.64,0,0,0,.88-1.94,8.56,8.56,0,0,0,.31-2.26,5.42,5.42,0,0,0-1.37-3.84,4.81,4.81,0,0,0-3.74-1.49,9.09,9.09,0,0,0-3.61.72,10,10,0,0,0-3.16,2.23l-2-1.92A12.47,12.47,0,0,1,59,191.58a12.31,12.31,0,0,1,4.88-.93A7.85,7.85,0,0,1,70,193a8,8,0,0,1,2.11,5.47,10.71,10.71,0,0,1-.43,3.05,9.21,9.21,0,0,1-1.21,2.61,14.36,14.36,0,0,1-2,2.39,26.63,26.63,0,0,1-2.77,2.32q-2,1.4-3.33,2.4a14.28,14.28,0,0,0-2.07,1.86,5.53,5.53,0,0,0-1.1,1.77,5.71,5.71,0,0,0-.32,2H73.2v2.94Z"/><path d="M63.77,269.54a7.54,7.54,0,0,1-6.7-3.71q-2.37-3.72-2.37-10.56,0-7.52,2.48-11.46a8,8,0,0,1,7.19-4,7.44,7.44,0,0,1,6.78,3.67q2.25,3.67,2.25,11t-2.54,11.11A8.05,8.05,0,0,1,63.77,269.54Zm.44-26.91a4.91,4.91,0,0,0-4.6,3.12q-1.55,3.1-1.55,9.36c0,3.87.51,6.77,1.51,8.71a4.82,4.82,0,0,0,4.52,2.92,4.77,4.77,0,0,0,4.47-3c1-2,1.48-4.93,1.48-8.88s-.49-7.15-1.46-9.19S66.15,242.63,64.21,242.63Z"/><path d="M63.77,318.74a7.54,7.54,0,0,1-6.7-3.71q-2.37-3.72-2.37-10.56,0-7.52,2.48-11.46a8,8,0,0,1,7.19-4,7.43,7.43,0,0,1,6.78,3.68q2.25,3.66,2.25,11t-2.54,11.11A8.05,8.05,0,0,1,63.77,318.74Zm.44-26.91a4.91,4.91,0,0,0-4.6,3.12q-1.55,3.1-1.55,9.36c0,3.87.51,6.77,1.51,8.71a4.82,4.82,0,0,0,4.52,2.92,4.77,4.77,0,0,0,4.47-3c1-2,1.48-4.93,1.48-8.88s-.49-7.15-1.46-9.19S66.15,291.83,64.21,291.83Z"/><path d="M55.16,365.5l1.52-2.37a12.24,12.24,0,0,0,3.22,1.53,11.35,11.35,0,0,0,3.27.48A6.7,6.7,0,0,0,68,363.62a5.13,5.13,0,0,0,1.6-3.89,4.93,4.93,0,0,0-2-4.33q-2-1.41-6-1.41H59.17V351.2h2.26a8.84,8.84,0,0,0,5.31-1.32,4.8,4.8,0,0,0,1.78-4.12,4.43,4.43,0,0,0-1.4-3.51A4.89,4.89,0,0,0,63.79,341a9.8,9.8,0,0,0-3.17.52,10.24,10.24,0,0,0-2.94,1.63L56,341a13.22,13.22,0,0,1,3.75-2.08,12.92,12.92,0,0,1,4.22-.66,8.51,8.51,0,0,1,5.78,1.9,6.6,6.6,0,0,1,2.17,5.21,6.93,6.93,0,0,1-1.43,4.39,8,8,0,0,1-4.3,2.63v.08A8.14,8.14,0,0,1,71,354.62a6.36,6.36,0,0,1,1.92,4.83,7.8,7.8,0,0,1-2.63,6.23,10.15,10.15,0,0,1-6.86,2.26,15.2,15.2,0,0,1-4.32-.58A15,15,0,0,1,55.16,365.5Z"/><line class="cls-2" x1="61" y1="661.5" x2="61" y2="391.5"/><path d="M88.54,699.84V671.13h9.21a10.68,10.68,0,0,1,6.58,1.79,5.89,5.89,0,0,1,2.35,5,6.64,6.64,0,0,1-1.35,4.15,7.23,7.23,0,0,1-3.59,2.5v.08a7,7,0,0,1,4.54,2.18,6.58,6.58,0,0,1,1.7,4.66,7.59,7.59,0,0,1-2.72,6.1,10.73,10.73,0,0,1-7.15,2.29ZM93.31,675v8.24h3.18a5.73,5.73,0,0,0,3.8-1.16,4,4,0,0,0,1.39-3.26,3.31,3.31,0,0,0-1.3-2.87,6.41,6.41,0,0,0-3.85-.95Zm0,12.07v9h4.08a6.25,6.25,0,0,0,4.12-1.24,4.21,4.21,0,0,0,1.47-3.39,3.78,3.78,0,0,0-1.52-3.25A7.47,7.47,0,0,0,97,687Z"/><path d="M115.15,675.38a2.89,2.89,0,0,1-2.12-.83,2.87,2.87,0,0,1,0-4.06,3,3,0,0,1,2.12-.8,3,3,0,0,1,2.14.8,2.9,2.9,0,0,1,0,4.08A3,3,0,0,1,115.15,675.38Zm2.3,24.46h-4.66v-20.5h4.66Z"/><path d="M134.67,699.56a9.26,9.26,0,0,1-1.88.56,11.76,11.76,0,0,1-2.11.18,6,6,0,0,1-4.37-1.51,6.09,6.09,0,0,1-1.53-4.52V683h-3.44v-3.64h3.44v-5l4.64-1.41v6.39h4.91V683h-4.91v10.91a3.45,3.45,0,0,0,.55,2.17,2.12,2.12,0,0,0,1.72.66,4.68,4.68,0,0,0,1.07-.13,5.08,5.08,0,0,0,.91-.33Z"/><path d="M149.48,699.56a9.26,9.26,0,0,1-1.88.56,11.57,11.57,0,0,1-2.1.18,6,6,0,0,1-4.38-1.51,6.09,6.09,0,0,1-1.53-4.52V683h-3.44v-3.64h3.44v-5l4.65-1.41v6.39h4.9V683h-4.9v10.91a3.39,3.39,0,0,0,.55,2.17,2.11,2.11,0,0,0,1.71.66,4.68,4.68,0,0,0,1.07-.13,5.08,5.08,0,0,0,.91-.33Z"/><path d="M170.48,690.81h-14a6.26,6.26,0,0,0,1.68,4.42,6.06,6.06,0,0,0,4.37,1.51,9,9,0,0,0,2.6-.46,10.16,10.16,0,0,0,2.88-1.49l2.1,2.91a13.44,13.44,0,0,1-3.86,2,14.41,14.41,0,0,1-4.32.62,9.89,9.89,0,0,1-7.45-2.75c-1.78-1.84-2.67-4.4-2.68-7.7a11.41,11.41,0,0,1,2.75-8,9.07,9.07,0,0,1,7.05-3,8.36,8.36,0,0,1,6.5,2.59q2.37,2.59,2.37,7.34Zm-4.5-3.22a5.94,5.94,0,0,0-1.15-4,4.1,4.1,0,0,0-3.26-1.33,4.54,4.54,0,0,0-3.37,1.43,6.6,6.6,0,0,0-1.71,3.88Z"/><path d="M186.32,683.24l-.73-.15a6.51,6.51,0,0,0-.81-.05,4.5,4.5,0,0,0-3.85,1.84,8,8,0,0,0-1.34,4.81v10.15h-4.66v-20.5h4.66v3.94h.08a6.69,6.69,0,0,1,2.12-3.21A5.23,5.23,0,0,1,185.1,679a7.1,7.1,0,0,1,1,.06,5.56,5.56,0,0,1,.83.18Z"/><path d="M86.12,747l2.12-3.67a14.94,14.94,0,0,0,3.63,1.7,13.65,13.65,0,0,0,3.76.49,6.39,6.39,0,0,0,3.91-1.07,4,4,0,0,0,.24-5.95,11.32,11.32,0,0,0-4-1.93,16.38,16.38,0,0,1-6.45-3.22,6.81,6.81,0,0,1-2.06-5.21,7.58,7.58,0,0,1,2.66-5.92,10.59,10.59,0,0,1,7.23-2.35,18,18,0,0,1,4,.44,18.56,18.56,0,0,1,3.84,1.36l-1.78,3.81a13.75,13.75,0,0,0-3.18-1.22,13.15,13.15,0,0,0-3.07-.36,5.76,5.76,0,0,0-3.59,1A3.32,3.32,0,0,0,92,727.7a3.05,3.05,0,0,0,1.2,2.55,13.64,13.64,0,0,0,4.12,1.83,15.18,15.18,0,0,1,6.46,3.35,7.51,7.51,0,0,1,2,5.5,7.94,7.94,0,0,1-2.68,6.18q-2.69,2.42-7.65,2.41a18.63,18.63,0,0,1-4.84-.63A16.72,16.72,0,0,1,86.12,747Z"/><path d="M137.31,728.54l-6,20.5h-4.87l-3.7-13.49a7,7,0,0,1-.22-1.09c0-.34-.08-.71-.1-1.12h-.1a10.45,10.45,0,0,1-.14,1.14c-.07.32-.16.67-.26,1l-4,13.53h-4.76l-6-20.5h4.81l3.6,14.49a8.35,8.35,0,0,1,.18.92c.05.34.09.71.12,1.13H116c0-.38.07-.74.13-1.08s.14-.69.23-1l4.18-14.43h4.37l3.74,14.51a5.73,5.73,0,0,1,.15.83c0,.35.1.76.15,1.24h.14c0-.32.07-.66.12-1s.13-.7.22-1.07l3.49-14.51Z"/><path d="M158.11,740h-14a6.26,6.26,0,0,0,1.68,4.42,6,6,0,0,0,4.36,1.51,9.1,9.1,0,0,0,2.61-.46,10.38,10.38,0,0,0,2.88-1.48l2.1,2.9a13.57,13.57,0,0,1-3.86,2,14.43,14.43,0,0,1-4.33.62,9.87,9.87,0,0,1-7.44-2.75c-1.78-1.84-2.67-4.4-2.69-7.7a11.42,11.42,0,0,1,2.76-8,9.06,9.06,0,0,1,7.05-3,8.36,8.36,0,0,1,6.5,2.59q2.37,2.6,2.37,7.34Zm-4.5-3.22a6,6,0,0,0-1.15-4,4.11,4.11,0,0,0-3.26-1.33,4.54,4.54,0,0,0-3.37,1.43,6.6,6.6,0,0,0-1.71,3.88Z"/><path d="M179.89,740h-14a6.26,6.26,0,0,0,1.68,4.42,6,6,0,0,0,4.36,1.51,9,9,0,0,0,2.61-.46,10.38,10.38,0,0,0,2.88-1.48l2.1,2.9a13.44,13.44,0,0,1-3.86,2,14.43,14.43,0,0,1-4.33.62,9.87,9.87,0,0,1-7.44-2.75c-1.78-1.84-2.67-4.4-2.69-7.7a11.42,11.42,0,0,1,2.76-8,9.06,9.06,0,0,1,7.05-3,8.36,8.36,0,0,1,6.5,2.59q2.37,2.6,2.37,7.34Zm-4.5-3.22a6,6,0,0,0-1.15-4,4.1,4.1,0,0,0-3.26-1.33,4.54,4.54,0,0,0-3.37,1.43,6.6,6.6,0,0,0-1.71,3.88Z"/><path d="M195.49,748.76a9.26,9.26,0,0,1-1.88.56,11.76,11.76,0,0,1-2.11.18,6,6,0,0,1-4.37-1.51,6.09,6.09,0,0,1-1.53-4.52V732.18h-3.45v-3.64h3.45v-5l4.64-1.41v6.39h4.91v3.64h-4.91v10.91a3.45,3.45,0,0,0,.55,2.17,2.11,2.11,0,0,0,1.71.66,4.7,4.7,0,0,0,1.08-.13,5.08,5.08,0,0,0,.91-.33Z"/><path d="M50.72,670.62l3.67,2.12a14.94,14.94,0,0,0-1.7,3.63,13.65,13.65,0,0,0-.49,3.76A6.39,6.39,0,0,0,53.27,684a4,4,0,0,0,5.95.24,11.32,11.32,0,0,0,1.93-4,16.24,16.24,0,0,1,3.23-6.45,6.77,6.77,0,0,1,5.2-2.06,7.58,7.58,0,0,1,5.92,2.66,10.59,10.59,0,0,1,2.35,7.23,18,18,0,0,1-.44,4,18.56,18.56,0,0,1-1.36,3.84l-3.81-1.78a13.75,13.75,0,0,0,1.22-3.18,12.64,12.64,0,0,0,.36-3.07,5.76,5.76,0,0,0-1-3.59A3.32,3.32,0,0,0,70,676.49a3.05,3.05,0,0,0-2.55,1.2,13.64,13.64,0,0,0-1.83,4.12,15.18,15.18,0,0,1-3.35,6.46,7.51,7.51,0,0,1-5.5,2,7.94,7.94,0,0,1-6.18-2.68q-2.42-2.68-2.41-7.65a18.63,18.63,0,0,1,.63-4.84A16.72,16.72,0,0,1,50.72,670.62Z"/><path d="M69.16,711.4,44.8,702a9.81,9.81,0,0,1-4.31-3A7.1,7.1,0,0,1,39,694.46,10.86,10.86,0,0,1,39.1,693a11.64,11.64,0,0,1,.25-1.31l3.62.82a5.61,5.61,0,0,0-.2.78,4.75,4.75,0,0,0-.06.78,3.29,3.29,0,0,0,.58,1.95A4,4,0,0,0,45,697.33l3.68,1.56,20.46-8.15v5.17l-14.27,4.76c-.23.07-.52.14-.87.22l-1.24.26v.1l.92.2c.34.08.72.19,1.15.32l14.31,5Z"/><path d="M48.66,745.17v-4.64H60.39a7.41,7.41,0,0,0,4.22-.95,3.51,3.51,0,0,0,1.33-3.05,3.78,3.78,0,0,0-1.65-3.12,6.54,6.54,0,0,0-4-1.25H48.66v-4.64h12a6.49,6.49,0,0,0,4-1,3.59,3.59,0,0,0,1.31-3,3.77,3.77,0,0,0-1.57-3.12,6.69,6.69,0,0,0-4.16-1.2H48.66V714.5h20.5v4.67H65.94v.08A7.55,7.55,0,0,1,68.67,722a7.35,7.35,0,0,1,1,3.77,6.24,6.24,0,0,1-1.06,3.66,5.9,5.9,0,0,1-3,2.21,8.22,8.22,0,0,1,3,2.86,7.73,7.73,0,0,1,1,4,6.11,6.11,0,0,1-2.07,5q-2.07,1.68-6.22,1.68Z"/><path d="M51.36,755.54v-.08H39.23V750.8H69.16v4.66H65.8v.08a8,8,0,0,1,2.88,2.91,7.93,7.93,0,0,1,1,3.94,7.5,7.5,0,0,1-2.74,6.18,11.46,11.46,0,0,1-7.39,2.21,12.65,12.65,0,0,1-8.24-2.52,8.34,8.34,0,0,1-3.09-6.81,7.05,7.05,0,0,1,.79-3.4A6.73,6.73,0,0,1,51.36,755.54Zm8.33-.14h-2.3a5.61,5.61,0,0,0-3.93,1.43,4.65,4.65,0,0,0-1.58,3.62,4.76,4.76,0,0,0,2,4.08A9.36,9.36,0,0,0,59.49,766a7.45,7.45,0,0,0,4.78-1.34,4.56,4.56,0,0,0,1.67-3.76,5,5,0,0,0-1.75-4A6.64,6.64,0,0,0,59.69,755.4Z"/><path d="M48.66,793.72v-4.64H60.39a7,7,0,0,0,4.17-1A3.59,3.59,0,0,0,65.94,785a4.36,4.36,0,0,0-1.58-3.43,6,6,0,0,0-4-1.37H48.66V775.5H79v4.67H65.92v.08a7.81,7.81,0,0,1,2.8,2.8,7.52,7.52,0,0,1,.92,3.72A6.41,6.41,0,0,1,67.55,792q-2.1,1.74-6.28,1.74Z"/><path d="M48.18,808.48a10.18,10.18,0,0,1,2.87-7.62,10.52,10.52,0,0,1,7.7-2.82c3.4,0,6.07,1,8,2.93a10.69,10.69,0,0,1,2.89,7.91,9.86,9.86,0,0,1-2.83,7.53,10.74,10.74,0,0,1-7.72,2.72,10.91,10.91,0,0,1-8-2.88A10.32,10.32,0,0,1,48.18,808.48Zm3.7.22a5.08,5.08,0,0,0,1.83,4.23A8.24,8.24,0,0,0,59,814.38a8,8,0,0,0,5.19-1.46,5.19,5.19,0,0,0,1.78-4.24,5.32,5.32,0,0,0-1.89-4.32,7.84,7.84,0,0,0-5.2-1.57,7.64,7.64,0,0,0-5.15,1.56A5.43,5.43,0,0,0,51.88,808.7Z"/><path d="M48.66,842.13v-4.65H60.21a7.27,7.27,0,0,0,4.3-1,3.61,3.61,0,0,0,1.43-3.12,4.34,4.34,0,0,0-1.58-3.44,5.92,5.92,0,0,0-4-1.36H48.66v-4.67h20.5v4.67H65.84v.08a7.82,7.82,0,0,1,2.85,2.8,7.67,7.67,0,0,1,1,3.86,6.23,6.23,0,0,1-2.14,5.12c-1.43,1.16-3.53,1.75-6.31,1.75Z"/><path d="M69.16,865.53,44.8,856.1a9.81,9.81,0,0,1-4.31-3A7.1,7.1,0,0,1,39,848.59a10.86,10.86,0,0,1,.09-1.43,11.64,11.64,0,0,1,.25-1.31l3.62.82a5.61,5.61,0,0,0-.2.78,4.75,4.75,0,0,0-.06.78,3.29,3.29,0,0,0,.58,1.95A4,4,0,0,0,45,851.46L48.7,853l20.46-8.15V850L54.89,854.8c-.23.07-.52.14-.87.22l-1.24.26v.1l.92.2c.34.08.72.19,1.15.32l14.31,5Z"/><rect x="1834.25" y="154.75" width="57.31" height="136.5"/><rect x="1787.36" y="154.75" width="39.51" height="136.5"/><rect x="1753.01" y="154.75" width="26.81" height="136.5"/><rect x="1731.45" y="154.75" width="13.26" height="136.5"/><rect x="1714.81" y="154.75" width="6.63" height="136.5"/><rect class="cls-3" x="1785.25" y="949.76" width="98" height="98" transform="translate(2425.04 3002) rotate(-135)"/><image width="2360" height="1640" transform="translate(1000.02 461.36) scale(0.38)" xlink:href="../Caballera.png"/><rect class="cls-4" x="24.5" y="1016.42" width="39.58" height="39.58"/><rect class="cls-5" x="73.62" y="1016.42" width="39.58" height="39.58"/><rect class="cls-5" x="121.82" y="1016.42" width="39.58" height="39.58"/><rect class="cls-5" x="170.95" y="1016.42" width="39.58" height="39.58"/><rect class="cls-5" x="218.29" y="1016.42" width="39.58" height="39.58"/><rect class="cls-5" x="267.42" y="1016.42" width="39.58" height="39.58"/><circle class="cls-5" cx="731" cy="727.34" r="119"/><ellipse class="cls-5" cx="731" cy="727.34" rx="31.5" ry="119"/><ellipse class="cls-5" cx="731" cy="727.34" rx="119" ry="31.5"/><line class="cls-5" x1="761.46" y1="696.88" x2="700.62" y2="758.84"/><polyline class="cls-5" points="601.78 1013.32 615.18 1023.19 631.82 1035.46 615.18 1047.72 603.39 1056.42"/><line class="cls-5" x1="631.82" y1="1035.23" x2="331.81" y2="1035.23"/></g></svg>