<svg xmlns="http://www.w3.org/2000/svg" viewBox="0 0 156.48 674.88"><defs><style>.cls-1{fill:none;stroke:#000;stroke-miterlimit:10;stroke-width:4px;}</style></defs><g id="Capa_2" data-name="Capa 2"><g id="Capa_2-2" data-name="Capa 2"><path d="M19.25,34.85V33.43a12.11,12.11,0,0,1,.4-3.24A8.41,8.41,0,0,1,21,27.53,14.77,14.77,0,0,1,23.39,25c1-.84,2.21-1.78,3.65-2.84A23.44,23.44,0,0,0,29.65,20a11.34,11.34,0,0,0,1.7-2A7,7,0,0,0,32.22,16a8.63,8.63,0,0,0,.31-2.27,5.49,5.49,0,0,0-1.36-3.84,4.84,4.84,0,0,0-3.75-1.48,9.13,9.13,0,0,0-3.61.72,9.8,9.8,0,0,0-3.16,2.22l-2-1.92A12.43,12.43,0,0,1,22.72,6.6a12.31,12.31,0,0,1,4.88-.93A7.82,7.82,0,0,1,33.76,8a7.92,7.92,0,0,1,2.11,5.46,10.77,10.77,0,0,1-.43,3.06,9.21,9.21,0,0,1-1.21,2.61,14.3,14.3,0,0,1-2,2.38,25.44,25.44,0,0,1-2.77,2.32c-1.34.94-2.46,1.74-3.33,2.41a13.67,13.67,0,0,0-2.07,1.86A5.39,5.39,0,0,0,23,29.89a5.75,5.75,0,0,0-.32,2H37v2.94Z" transform="translate(-2.78 -5.67)"/><path d="M27.54,84.55a7.49,7.49,0,0,1-6.69-3.71c-1.59-2.47-2.38-6-2.38-10.56q0-7.5,2.49-11.46a8,8,0,0,1,7.18-4,7.42,7.42,0,0,1,6.78,3.67q2.25,3.68,2.25,11T34.63,80.69A8,8,0,0,1,27.54,84.55ZM28,57.65a4.92,4.92,0,0,0-4.6,3.11q-1.54,3.12-1.54,9.36,0,5.8,1.5,8.72a4.83,4.83,0,0,0,4.52,2.91,4.77,4.77,0,0,0,4.47-3c1-2,1.48-4.94,1.48-8.89s-.49-7.15-1.46-9.19S29.92,57.65,28,57.65Z" transform="translate(-2.78 -5.67)"/><path d="M27.54,133.75A7.49,7.49,0,0,1,20.85,130c-1.59-2.47-2.38-6-2.38-10.56Q18.47,112,21,108a8,8,0,0,1,7.18-4,7.42,7.42,0,0,1,6.78,3.67q2.25,3.67,2.25,11t-2.54,11.11A8,8,0,0,1,27.54,133.75Zm.44-26.9a4.92,4.92,0,0,0-4.6,3.11q-1.54,3.12-1.54,9.36,0,5.81,1.5,8.72A4.83,4.83,0,0,0,27.86,131a4.77,4.77,0,0,0,4.47-3c1-2,1.48-4.94,1.48-8.89s-.49-7.15-1.46-9.19S29.92,106.85,28,106.85Z" transform="translate(-2.78 -5.67)"/><path d="M18.93,180.51l1.52-2.36a12.52,12.52,0,0,0,3.22,1.52,11.35,11.35,0,0,0,3.27.48,6.74,6.74,0,0,0,4.8-1.52,5.13,5.13,0,0,0,1.59-3.88,5,5,0,0,0-2-4.34q-2-1.41-6-1.41H22.94v-2.78H25.2a8.84,8.84,0,0,0,5.31-1.32,4.8,4.8,0,0,0,1.78-4.13,4.43,4.43,0,0,0-1.39-3.5,4.91,4.91,0,0,0-3.34-1.22,9.58,9.58,0,0,0-3.17.52,10.26,10.26,0,0,0-2.93,1.62L19.73,156a12.25,12.25,0,0,1,8-2.74,8.46,8.46,0,0,1,5.78,1.9,6.55,6.55,0,0,1,2.17,5.2,7,7,0,0,1-1.43,4.4,8,8,0,0,1-4.3,2.63v.08a8.07,8.07,0,0,1,4.85,2.15,6.37,6.37,0,0,1,1.92,4.84,7.78,7.78,0,0,1-2.63,6.22A10.15,10.15,0,0,1,27.2,183a15.2,15.2,0,0,1-4.32-.58A14.56,14.56,0,0,1,18.93,180.51Z" transform="translate(-2.78 -5.67)"/><line class="cls-1" x1="21.99" y1="470.85" x2="21.99" y2="200.85"/><path d="M52.31,514.85v-28.7h9.21a10.61,10.61,0,0,1,6.58,1.79,5.86,5.86,0,0,1,2.35,4.95,6.67,6.67,0,0,1-1.35,4.16,7.15,7.15,0,0,1-3.59,2.49v.08a7.09,7.09,0,0,1,4.54,2.18,6.58,6.58,0,0,1,1.7,4.67A7.55,7.55,0,0,1,69,512.56a10.71,10.71,0,0,1-7.15,2.29ZM57.08,490v8.25h3.18a5.79,5.79,0,0,0,3.8-1.16,4.06,4.06,0,0,0,1.39-3.27,3.34,3.34,0,0,0-1.29-2.87A6.52,6.52,0,0,0,60.3,490Zm0,12.07v9h4.08a6.2,6.2,0,0,0,4.12-1.24,4.2,4.2,0,0,0,1.47-3.38,3.79,3.79,0,0,0-1.52-3.26A7.47,7.47,0,0,0,60.8,502Z" transform="translate(-2.78 -5.67)"/><path d="M78.92,490.39a2.9,2.9,0,0,1-2.12-.82,2.72,2.72,0,0,1-.84-2,2.68,2.68,0,0,1,.84-2,3.21,3.21,0,0,1,4.26,0,2.89,2.89,0,0,1,0,4.07A3,3,0,0,1,78.92,490.39Zm2.3,24.46H76.56v-20.5h4.66Z" transform="translate(-2.78 -5.67)"/><path d="M98.44,514.57a8.67,8.67,0,0,1-1.88.56,11.73,11.73,0,0,1-2.1.18,6,6,0,0,1-4.38-1.51,6.06,6.06,0,0,1-1.53-4.51V498H85.11v-3.65h3.44v-5l4.64-1.4v6.38H98.1V498H93.19v10.91a3.42,3.42,0,0,0,.55,2.16,2.12,2.12,0,0,0,1.72.66,4.18,4.18,0,0,0,1.07-.13,5.08,5.08,0,0,0,.91-.33Z" transform="translate(-2.78 -5.67)"/><path d="M113.25,514.57a8.51,8.51,0,0,1-1.88.56,11.57,11.57,0,0,1-2.1.18,5.94,5.94,0,0,1-4.37-1.51,6,6,0,0,1-1.54-4.51V498H99.92v-3.65h3.44v-5L108,488v6.38h4.9V498H108v10.91a3.35,3.35,0,0,0,.55,2.16,2.11,2.11,0,0,0,1.71.66,4.18,4.18,0,0,0,1.07-.13,4.82,4.82,0,0,0,.91-.33Z" transform="translate(-2.78 -5.67)"/><path d="M134.25,505.82h-14a6.26,6.26,0,0,0,1.68,4.42,6,6,0,0,0,4.37,1.51,8.71,8.71,0,0,0,2.6-.46,10.38,10.38,0,0,0,2.88-1.48l2.1,2.9a13.31,13.31,0,0,1-3.86,2,14.09,14.09,0,0,1-4.32.62c-3.19,0-5.68-.91-7.45-2.75s-2.67-4.4-2.68-7.7a11.39,11.39,0,0,1,2.75-8,9.09,9.09,0,0,1,7.06-3.05,8.36,8.36,0,0,1,6.49,2.6c1.58,1.72,2.37,4.17,2.37,7.33Zm-4.5-3.22a5.92,5.92,0,0,0-1.15-4,4.06,4.06,0,0,0-3.25-1.33,4.51,4.51,0,0,0-3.38,1.43,6.55,6.55,0,0,0-1.71,3.87Z" transform="translate(-2.78 -5.67)"/><path d="M150.09,498.26a5.27,5.27,0,0,0-.73-.15,5,5,0,0,0-.81-.05,4.48,4.48,0,0,0-3.85,1.84,8,8,0,0,0-1.34,4.8v10.15H138.7v-20.5h4.66v3.95h.08a6.62,6.62,0,0,1,2.13-3.22,5.24,5.24,0,0,1,3.3-1.09,7.1,7.1,0,0,1,1,.06,5.56,5.56,0,0,1,.83.18Z" transform="translate(-2.78 -5.67)"/><path d="M49.89,562,52,558.33A15.26,15.26,0,0,0,55.64,560a13.28,13.28,0,0,0,3.76.49,6.39,6.39,0,0,0,3.91-1.07,3.59,3.59,0,0,0,1.44-3.07,3.65,3.65,0,0,0-1.19-2.88,11.47,11.47,0,0,0-4-1.93,16.25,16.25,0,0,1-6.44-3.22A6.76,6.76,0,0,1,51,543.13a7.55,7.55,0,0,1,2.67-5.91,10.49,10.49,0,0,1,7.22-2.35,17.58,17.58,0,0,1,7.79,1.8l-1.78,3.8a14.34,14.34,0,0,0-3.17-1.22,13.3,13.3,0,0,0-3.08-.36,5.76,5.76,0,0,0-3.59,1,3.33,3.33,0,0,0-1.31,2.82,3.07,3.07,0,0,0,1.2,2.56,13.64,13.64,0,0,0,4.12,1.83,15.18,15.18,0,0,1,6.46,3.34,7.54,7.54,0,0,1,2,5.51,7.91,7.91,0,0,1-2.68,6.17q-2.68,2.42-7.65,2.41a18.26,18.26,0,0,1-4.84-.63A16.4,16.4,0,0,1,49.89,562Z" transform="translate(-2.78 -5.67)"/><path d="M101.08,543.55l-6,20.5H90.19l-3.7-13.49a7,7,0,0,1-.22-1.09c0-.34-.08-.71-.1-1.11h-.1a10.24,10.24,0,0,1-.14,1.13c-.07.33-.16.67-.26,1l-4,13.53H76.92l-6-20.5H75.7l3.6,14.5a8.62,8.62,0,0,1,.18.91c0,.34.09.72.12,1.13h.14c0-.37.07-.73.13-1.08s.14-.69.23-1l4.19-14.44h4.36l3.74,14.52a5.48,5.48,0,0,1,.15.83q.08.51.15,1.23h.14c0-.32.07-.65.12-1s.13-.7.22-1.06l3.49-14.52Z" transform="translate(-2.78 -5.67)"/><path d="M121.88,555h-14a6.26,6.26,0,0,0,1.68,4.42,6,6,0,0,0,4.36,1.51,8.71,8.71,0,0,0,2.61-.46,10.38,10.38,0,0,0,2.88-1.48l2.1,2.9a13.44,13.44,0,0,1-3.86,2,14.11,14.11,0,0,1-4.33.62c-3.19,0-5.67-.91-7.44-2.75s-2.67-4.4-2.69-7.7a11.39,11.39,0,0,1,2.76-8,9.07,9.07,0,0,1,7.05-3,8.37,8.37,0,0,1,6.5,2.6q2.37,2.6,2.37,7.33Zm-4.5-3.22a6,6,0,0,0-1.15-4A4.07,4.07,0,0,0,113,546.5a4.51,4.51,0,0,0-3.37,1.43,6.55,6.55,0,0,0-1.71,3.87Z" transform="translate(-2.78 -5.67)"/><path d="M143.66,555h-14a6.26,6.26,0,0,0,1.68,4.42,6,6,0,0,0,4.37,1.51,8.71,8.71,0,0,0,2.6-.46A10.38,10.38,0,0,0,141.2,559l2.1,2.9a13.31,13.31,0,0,1-3.86,2,14.09,14.09,0,0,1-4.32.62c-3.19,0-5.68-.91-7.45-2.75s-2.67-4.4-2.68-7.7a11.39,11.39,0,0,1,2.75-8,9.08,9.08,0,0,1,7-3,8.37,8.37,0,0,1,6.5,2.6q2.37,2.6,2.37,7.33Zm-4.5-3.22a5.92,5.92,0,0,0-1.15-4,4.07,4.07,0,0,0-3.26-1.33,4.51,4.51,0,0,0-3.37,1.43,6.55,6.55,0,0,0-1.71,3.87Z" transform="translate(-2.78 -5.67)"/><path d="M159.26,563.77a8.67,8.67,0,0,1-1.88.56,11.76,11.76,0,0,1-2.11.18A6,6,0,0,1,150.9,563a6.06,6.06,0,0,1-1.53-4.51V547.2h-3.44v-3.65h3.44v-5l4.64-1.4v6.38h4.91v3.65H154v10.91a3.42,3.42,0,0,0,.55,2.16,2.12,2.12,0,0,0,1.72.66,4.18,4.18,0,0,0,1.07-.13,5.08,5.08,0,0,0,.91-.33Z" transform="translate(-2.78 -5.67)"/><path d="M14.49,485.64l3.67,2.12a14.66,14.66,0,0,0-1.69,3.62,13.31,13.31,0,0,0-.5,3.76,6.38,6.38,0,0,0,1.08,3.92,3.6,3.6,0,0,0,3.07,1.43A3.65,3.65,0,0,0,23,499.3a11.3,11.3,0,0,0,1.93-4,16.25,16.25,0,0,1,3.23-6.44,6.74,6.74,0,0,1,5.2-2.06,7.55,7.55,0,0,1,5.92,2.66,10.5,10.5,0,0,1,2.35,7.23,18,18,0,0,1-.44,3.94,17.8,17.8,0,0,1-1.36,3.84L36,502.65a13.75,13.75,0,0,0,1.23-3.17,13.21,13.21,0,0,0,.36-3.07,5.85,5.85,0,0,0-1-3.6,3.36,3.36,0,0,0-2.83-1.31,3.05,3.05,0,0,0-2.55,1.2,13.72,13.72,0,0,0-1.83,4.13A15.08,15.08,0,0,1,26,503.28a7.45,7.45,0,0,1-5.5,2,7.94,7.94,0,0,1-6.18-2.68q-2.41-2.69-2.41-7.65a18.68,18.68,0,0,1,.63-4.84A16.52,16.52,0,0,1,14.49,485.64Z" transform="translate(-2.78 -5.67)"/><path d="M32.93,526.42,8.57,517a10,10,0,0,1-4.31-3,7.13,7.13,0,0,1-1.48-4.51,10.65,10.65,0,0,1,.09-1.43,13.21,13.21,0,0,1,.25-1.31l3.63.82a4.48,4.48,0,0,0-.2.78,4.75,4.75,0,0,0-.06.78,3.19,3.19,0,0,0,.58,1.94,3.94,3.94,0,0,0,1.72,1.28l3.68,1.56,20.46-8.15v5.17l-14.27,4.76c-.23.07-.52.14-.87.22l-1.23.27v.1l.91.2c.34.08.72.18,1.15.32l14.31,4.94Z" transform="translate(-2.78 -5.67)"/><path d="M12.43,560.19v-4.65H24.16a7.33,7.33,0,0,0,4.22-.95,3.5,3.5,0,0,0,1.33-3.05,3.76,3.76,0,0,0-1.65-3.11,6.47,6.47,0,0,0-4-1.26H12.43v-4.64h12a6.47,6.47,0,0,0,4-1,3.57,3.57,0,0,0,1.31-3,3.78,3.78,0,0,0-1.57-3.13,6.67,6.67,0,0,0-4.16-1.2H12.43v-4.66h20.5v4.66H29.71v.08A7.57,7.57,0,0,1,32.44,537a7.33,7.33,0,0,1,1,3.77,6.23,6.23,0,0,1-1.06,3.65,5.9,5.9,0,0,1-3,2.21,8.09,8.09,0,0,1,3,2.87,7.57,7.57,0,0,1,1,4,6.13,6.13,0,0,1-2.07,5q-2.07,1.68-6.22,1.68Z" transform="translate(-2.78 -5.67)"/><path d="M15.13,570.56v-.08H3v-4.67H32.93v4.67H29.57v.08a7.59,7.59,0,0,1,3.84,6.85,7.47,7.47,0,0,1-2.74,6.17,11.4,11.4,0,0,1-7.39,2.21A12.67,12.67,0,0,1,15,583.27,8.33,8.33,0,0,1,12,576.46a7.08,7.08,0,0,1,.79-3.4A6.78,6.78,0,0,1,15.13,570.56Zm8.33-.14h-2.3a5.6,5.6,0,0,0-3.93,1.42,4.68,4.68,0,0,0-1.58,3.62,4.78,4.78,0,0,0,2,4.09,9.37,9.37,0,0,0,5.6,1.46A7.51,7.51,0,0,0,28,579.67a4.58,4.58,0,0,0,1.67-3.77,5,5,0,0,0-1.75-4A6.64,6.64,0,0,0,23.46,570.42Z" transform="translate(-2.78 -5.67)"/><path d="M12.43,608.74v-4.65H24.16a7,7,0,0,0,4.17-1A3.59,3.59,0,0,0,29.71,600a4.38,4.38,0,0,0-1.58-3.44,6,6,0,0,0-4.05-1.37H12.43v-4.66H42.78v4.66H29.69v.08a7.84,7.84,0,0,1,2.8,2.81,7.49,7.49,0,0,1,.92,3.72,6.38,6.38,0,0,1-2.09,5.2q-2.1,1.75-6.28,1.75Z" transform="translate(-2.78 -5.67)"/><path d="M12,623.49a10.21,10.21,0,0,1,2.87-7.62,10.56,10.56,0,0,1,7.7-2.81,10.87,10.87,0,0,1,8,2.92,10.71,10.71,0,0,1,2.89,7.91,9.86,9.86,0,0,1-2.83,7.54,10.72,10.72,0,0,1-7.72,2.71,11,11,0,0,1-8-2.87A10.39,10.39,0,0,1,12,623.49Zm3.7.22a5.06,5.06,0,0,0,1.83,4.23,8.26,8.26,0,0,0,5.26,1.46,8,8,0,0,0,5.19-1.47,5.19,5.19,0,0,0,1.78-4.24,5.31,5.31,0,0,0-1.88-4.31,7.89,7.89,0,0,0-5.21-1.58,7.64,7.64,0,0,0-5.15,1.57A5.41,5.41,0,0,0,15.65,623.71Z" transform="translate(-2.78 -5.67)"/><path d="M12.43,657.14V652.5H24a7.35,7.35,0,0,0,4.3-1,3.64,3.64,0,0,0,1.43-3.13,4.37,4.37,0,0,0-1.58-3.44,5.92,5.92,0,0,0-4-1.36H12.43v-4.67h20.5v4.67H29.61v.08a7.3,7.3,0,0,1,3.8,6.67,6.21,6.21,0,0,1-2.14,5.11q-2.14,1.75-6.31,1.75Z" transform="translate(-2.78 -5.67)"/><path d="M32.93,680.55,8.57,671.12a10,10,0,0,1-4.31-3,7.13,7.13,0,0,1-1.48-4.51,10.65,10.65,0,0,1,.09-1.43,13.21,13.21,0,0,1,.25-1.31l3.63.82a4.48,4.48,0,0,0-.2.78,4.75,4.75,0,0,0-.06.78,3.19,3.19,0,0,0,.58,1.94,3.94,3.94,0,0,0,1.72,1.28L12.47,668l20.46-8.14v5.16l-14.27,4.77-.87.22-1.23.26v.1l.91.2c.34.08.72.18,1.15.32l14.31,4.94Z" transform="translate(-2.78 -5.67)"/></g></g></svg>